<?xml version="1.0" standalone="no"?>
<!DOCTYPE svg PUBLIC "-//W3C//DTD SVG 20010904//EN"
 "http://www.w3.org/TR/2001/REC-SVG-20010904/DTD/svg10.dtd">
<svg version="1.0" xmlns="http://www.w3.org/2000/svg"
 width="784.000000pt" height="784.000000pt" viewBox="0 0 784.000000 784.000000"
 preserveAspectRatio="xMidYMid meet">
<metadata>
Created by potrace 1.11, written by Peter Selinger 2001-2013
</metadata>
<g transform="translate(0.000000,784.000000) scale(0.100000,-0.100000)"
fill="#000000" stroke="none">
<path d="M3700 7516 c-3 -2 -34 -7 -70 -10 -96 -8 -200 -20 -260 -30 -19 -4
-48 -8 -65 -11 -16 -2 -39 -6 -50 -9 -11 -2 -30 -5 -43 -5 -13 -1 -21 -4 -19
-8 3 -5 -9 -7 -26 -7 -18 1 -36 -1 -42 -5 -5 -3 -14 -6 -20 -7 -49 -9 -71 -14
-99 -24 -18 -6 -42 -12 -52 -14 -51 -10 -194 -58 -190 -64 2 -4 -12 -8 -32 -9
-19 -1 -38 -5 -41 -10 -3 -4 -15 -10 -26 -11 -11 -2 -24 -8 -30 -12 -5 -4 -29
-13 -53 -19 -23 -7 -41 -15 -38 -19 2 -4 -6 -8 -17 -8 -12 -1 -76 -28 -142
-60 -66 -32 -123 -57 -127 -56 -5 1 -8 -2 -8 -6 0 -5 -16 -14 -35 -22 -19 -8
-35 -17 -35 -21 0 -4 -9 -9 -21 -12 -13 -4 -18 -10 -13 -18 4 -8 3 -10 -4 -5
-14 8 -75 -22 -67 -33 3 -5 -4 -7 -15 -4 -11 3 -20 0 -20 -6 0 -6 -4 -11 -9
-11 -20 0 -80 -45 -76 -57 2 -7 -2 -10 -9 -7 -15 6 -162 -93 -158 -107 1 -5
-1 -8 -5 -7 -13 4 -63 -33 -58 -42 3 -4 -3 -7 -13 -6 -9 0 -16 -5 -14 -12 1
-8 -2 -11 -7 -8 -5 4 -15 0 -23 -7 -7 -7 -26 -23 -42 -35 -28 -22 -158 -136
-198 -175 -10 -10 -16 -22 -13 -27 3 -6 -1 -7 -9 -4 -9 4 -16 1 -16 -6 0 -7
-7 -10 -15 -7 -8 4 -17 1 -21 -5 -4 -6 -3 -8 4 -4 6 4 10 -1 9 -13 -1 -13 -7
-18 -19 -16 -10 2 -17 1 -15 -3 1 -4 -20 -30 -48 -59 -27 -28 -62 -67 -78 -87
-19 -24 -33 -34 -45 -30 -14 5 -15 4 -2 -5 13 -9 11 -14 -11 -35 -15 -14 -31
-22 -35 -18 -5 4 -3 0 4 -9 10 -14 8 -19 -12 -33 -14 -8 -33 -29 -43 -46 -9
-17 -23 -28 -30 -26 -7 3 -15 0 -19 -6 -4 -7 -3 -8 4 -4 19 12 13 -17 -9 -43
-15 -18 -23 -21 -31 -13 -7 7 -17 12 -22 12 -6 0 -3 -5 7 -11 22 -13 22 -35
-1 -48 -9 -6 -13 -11 -8 -11 5 0 -3 -11 -18 -25 -15 -14 -23 -25 -19 -25 4 0
-1 -7 -11 -15 -14 -10 -15 -15 -6 -15 9 0 6 -6 -8 -16 -12 -8 -20 -20 -17 -25
4 -5 2 -9 -4 -9 -6 0 -13 -11 -17 -25 -3 -13 -13 -30 -22 -37 -13 -11 -14 -11
-7 1 5 9 4 12 -3 7 -6 -4 -9 -13 -6 -21 3 -8 -1 -22 -10 -31 -9 -8 -14 -20
-11 -25 4 -5 1 -9 -5 -9 -6 0 -15 -12 -20 -26 -6 -14 -14 -23 -18 -20 -5 3 -8
-5 -8 -17 1 -13 -4 -21 -12 -19 -8 1 -11 -2 -8 -7 8 -13 -15 -62 -26 -55 -5 3
-8 2 -7 -3 3 -20 -2 -44 -9 -39 -4 2 -9 -4 -10 -15 -4 -42 -6 -49 -12 -49 -4
0 -13 -18 -20 -40 -7 -21 -17 -37 -22 -34 -5 3 -9 0 -7 -7 3 -28 -1 -40 -13
-33 -6 4 -8 3 -4 -4 6 -10 -8 -57 -40 -129 -8 -17 -14 -37 -14 -45 0 -8 -3
-18 -8 -22 -4 -4 -7 -11 -7 -14 -1 -4 -12 -43 -27 -87 -42 -132 -67 -218 -73
-250 -2 -16 -7 -41 -11 -55 -3 -14 -7 -34 -9 -45 -3 -11 -9 -38 -14 -60 -9
-36 -13 -64 -26 -160 -2 -16 -4 -30 -5 -30 -1 0 -3 -9 -5 -20 -28 -147 -40
-730 -16 -759 8 -9 8 -16 2 -20 -6 -4 -8 -13 -4 -21 3 -9 6 -34 8 -58 4 -68 4
-69 18 -61 9 6 9 5 0 -7 -7 -9 -10 -26 -8 -40 3 -13 6 -36 7 -51 1 -16 5 -28
8 -28 3 0 5 -15 6 -32 1 -29 8 -80 19 -127 3 -9 12 -50 21 -91 8 -41 20 -83
25 -92 5 -10 7 -18 5 -18 -3 0 1 -19 10 -42 8 -22 12 -43 9 -46 -2 -2 1 -14 7
-26 7 -11 13 -30 15 -41 2 -10 7 -22 11 -25 4 -3 8 -18 10 -35 2 -16 8 -31 13
-33 5 -2 9 -12 9 -22 0 -18 51 -158 70 -192 6 -10 10 -25 10 -33 0 -8 4 -15 8
-15 5 0 9 -6 9 -12 0 -18 85 -192 97 -200 6 -4 8 -8 4 -8 -4 0 9 -27 28 -61
18 -33 34 -65 34 -70 0 -5 3 -9 8 -9 4 0 18 -23 32 -51 13 -27 32 -59 42 -69
10 -11 18 -22 18 -25 0 -15 94 -144 101 -139 5 3 6 -2 3 -10 -3 -9 -1 -16 5
-16 6 0 11 -6 11 -13 0 -7 9 -19 20 -27 11 -8 20 -19 20 -25 0 -5 14 -24 30
-42 17 -18 30 -36 30 -40 0 -5 8 -15 18 -24 9 -8 28 -29 42 -46 13 -17 29 -29
34 -26 5 3 6 2 3 -4 -8 -13 31 -55 43 -48 6 3 8 0 5 -7 -3 -7 22 -40 55 -73
33 -32 60 -63 60 -67 0 -4 6 -8 13 -8 6 0 21 -14 32 -30 11 -16 23 -30 27 -30
4 0 24 -18 44 -40 21 -22 44 -40 51 -40 8 0 11 -5 8 -10 -3 -6 -2 -10 4 -10 8
0 63 -45 113 -92 10 -10 18 -16 18 -14 0 3 15 -8 32 -25 18 -16 38 -27 45 -25
7 3 10 -1 6 -10 -3 -7 0 -14 6 -14 6 0 34 -18 63 -40 29 -22 65 -46 81 -53 15
-6 27 -15 27 -18 0 -4 21 -20 48 -35 26 -16 54 -33 63 -39 90 -55 151 -85 160
-79 7 4 9 3 5 -4 -7 -12 51 -45 65 -36 5 3 8 2 7 -3 -2 -4 -1 -9 2 -9 3 -1 31
-16 63 -34 32 -17 65 -29 73 -26 8 3 13 2 10 -3 -3 -5 25 -21 62 -37 37 -15
72 -32 79 -37 7 -5 17 -6 22 -3 5 4 13 1 16 -5 4 -5 13 -8 20 -5 8 3 15 1 17
-4 2 -5 10 -10 18 -12 8 -2 17 -5 20 -8 6 -7 196 -70 225 -75 11 -2 20 -4 20
-5 0 -1 8 -3 18 -6 9 -2 25 -6 35 -8 9 -3 17 -5 17 -6 0 -1 13 -4 29 -6 16 -3
38 -10 48 -15 13 -7 18 -6 18 3 0 10 2 10 9 0 4 -7 19 -15 32 -17 13 -2 35 -6
49 -9 14 -3 41 -9 60 -12 68 -10 139 -22 165 -28 11 -2 52 -7 90 -10 39 -4 82
-9 97 -12 15 -2 103 -6 195 -8 120 -3 172 -1 182 7 12 9 13 9 7 0 -5 -10 16
-12 101 -7 59 3 128 7 153 10 25 3 65 6 89 9 55 5 119 13 151 20 14 3 39 8 55
10 17 2 44 7 60 10 61 12 76 15 98 20 12 3 33 7 46 10 13 2 49 12 80 21 31 9
65 18 77 20 22 4 168 50 194 61 8 3 17 7 20 8 3 0 28 8 55 18 28 9 54 17 59
16 5 0 12 4 16 10 3 6 17 14 31 16 34 7 69 27 63 36 -3 5 2 6 10 3 8 -3 62 17
120 45 58 28 107 50 109 49 5 -6 35 27 30 34 -2 4 2 5 10 2 8 -3 36 8 63 25
27 16 68 40 92 52 23 12 42 26 42 31 0 4 7 8 16 8 8 0 12 4 9 10 -3 6 1 7 9 4
9 -3 16 -1 16 5 0 6 5 11 11 11 15 0 59 36 54 44 -3 3 -2 4 1 1 8 -6 64 27 64
37 0 4 7 8 15 8 8 0 15 5 15 10 0 6 5 10 10 10 6 0 16 5 23 10 7 6 41 33 75
60 35 28 71 57 79 65 8 8 23 20 34 26 11 5 17 14 14 20 -4 5 -2 8 3 7 19 -6
225 185 214 198 -4 5 2 2 12 -6 11 -8 17 -10 13 -3 -4 6 -2 15 4 18 5 4 8 13
5 21 -3 9 0 11 11 7 12 -5 15 -2 10 10 -3 9 -3 16 1 16 20 -3 31 3 37 21 4 11
9 18 13 16 4 -2 13 2 20 10 7 8 11 14 9 14 -3 0 11 17 30 37 19 21 39 37 45
35 5 -1 7 1 4 6 -7 11 29 64 37 55 4 -3 7 1 7 10 0 8 3 17 8 19 6 3 70 87 112
148 27 40 47 60 53 54 3 -3 3 5 0 18 -6 20 -4 21 9 10 13 -10 15 -9 10 15 -4
22 -2 25 12 20 9 -4 15 -3 13 1 -3 4 0 18 5 32 7 18 11 21 17 11 6 -9 9 -4 9
14 0 15 4 30 9 34 6 3 18 22 27 42 9 20 25 45 35 55 9 11 17 21 17 24 1 17 38
79 44 75 5 -3 6 4 3 15 -3 11 0 20 6 20 6 0 11 4 11 9 0 20 77 170 84 164 4
-4 4 0 0 10 -3 9 -1 23 5 31 7 8 13 22 15 32 3 11 10 33 17 49 7 17 12 33 11
38 -1 4 3 7 10 7 6 0 9 3 5 6 -3 3 5 31 18 62 19 47 45 120 70 202 3 8 18 71
35 140 17 69 35 142 42 162 6 20 8 43 5 52 -3 8 -2 16 4 18 5 2 11 26 14 53 2
28 7 61 10 75 7 28 14 94 19 160 2 25 5 45 6 45 2 0 8 102 14 223 2 55 -1 82
-8 82 -7 0 -8 3 -1 8 15 10 16 114 1 105 -8 -5 -8 -3 0 8 12 16 12 29 1 47 -5
6 -4 12 0 12 5 0 8 12 7 28 -1 15 -3 27 -4 27 0 0 -2 29 -4 65 -9 150 -25 260
-40 279 -8 11 -8 13 0 8 9 -5 10 3 3 31 -4 20 -10 51 -13 67 -24 139 -51 247
-60 238 -5 -4 -6 -3 -2 4 7 12 -21 133 -34 143 -3 3 -6 12 -6 20 0 24 -27 104
-37 111 -5 3 -8 9 -8 13 2 11 -12 60 -28 96 -8 19 -15 37 -16 40 -4 11 -17 47
-28 70 -6 14 -10 28 -9 33 1 4 -2 7 -6 7 -5 0 -9 6 -9 13 0 7 -27 66 -60 132
-70 141 -85 167 -98 177 -5 4 -6 8 -1 8 5 0 2 8 -6 18 -8 9 -18 25 -21 35 -4
11 -12 15 -18 11 -8 -4 -9 -3 -5 4 10 16 -12 54 -26 46 -7 -4 -8 -3 -4 4 8 14
-12 55 -23 47 -5 -2 -8 3 -7 13 0 9 -5 16 -12 14 -8 -1 -11 2 -7 8 5 8 -47 95
-87 145 -4 6 -27 35 -50 65 -23 30 -45 57 -50 58 -4 2 -8 9 -8 16 0 14 -42 52
-53 48 -5 -1 -6 2 -3 6 3 5 -6 22 -20 38 -14 16 -37 44 -51 62 -15 19 -32 31
-40 28 -8 -3 -11 -1 -8 4 4 6 -14 32 -39 58 -25 26 -46 50 -46 55 0 4 -6 7
-12 7 -7 0 -22 14 -33 30 -11 16 -23 30 -26 30 -4 0 -27 19 -51 43 -97 93
-129 119 -144 113 -9 -3 -12 -2 -9 5 7 10 -10 28 -61 65 -23 17 -88 67 -120
93 -7 6 -15 7 -18 4 -3 -4 -6 -1 -6 5 0 7 -6 12 -14 12 -8 0 -16 4 -18 8 -4
13 -123 92 -137 92 -6 0 -11 5 -11 11 0 6 -7 8 -16 5 -8 -3 -13 -2 -10 2 8 14
-286 177 -298 165 -3 -3 -6 -1 -6 5 0 7 -5 12 -11 12 -7 0 -43 16 -80 35 -38
19 -69 32 -69 29 0 -4 -7 -1 -15 6 -8 6 -18 9 -24 6 -5 -3 -11 1 -15 9 -3 8
-14 15 -24 15 -10 0 -22 3 -26 7 -3 4 -12 8 -19 9 -7 1 -56 18 -109 37 -54 20
-98 33 -98 30 0 -3 -6 -1 -13 5 -7 6 -26 13 -42 16 -17 2 -30 5 -30 6 0 1 -8
3 -17 6 -10 2 -26 6 -35 8 -10 3 -18 5 -18 6 0 2 -37 10 -65 14 -14 2 -32 6
-40 9 -22 8 -73 20 -90 22 -8 1 -24 5 -35 8 -11 4 -41 9 -67 12 -25 3 -57 8
-69 11 -13 2 -42 7 -64 10 -22 2 -53 7 -70 9 -28 4 -98 10 -238 19 -42 3 -55
1 -50 -7 5 -9 3 -9 -8 -1 -16 13 -296 14 -316 1 -6 -4 -13 -2 -15 4 -2 5 -6 8
-8 5z"/>
<path d="M1175 6299 c-3 -4 2 -6 10 -5 21 3 28 13 10 13 -9 0 -18 -4 -20 -8z"/>
<path d="M1113 6234 c0 -9 4 -11 12 -4 7 5 14 9 16 7 2 -1 3 0 1 2 -7 11 -29
7 -29 -5z"/>
<path d="M906 5938 c3 -5 10 -6 15 -3 13 9 11 12 -6 12 -8 0 -12 -4 -9 -9z"/>
<path d="M850 5880 c0 -5 5 -10 11 -10 5 0 7 5 4 10 -3 6 -8 10 -11 10 -2 0
-4 -4 -4 -10z"/>
<path d="M814 5816 c1 -8 5 -18 8 -22 4 -3 5 1 4 10 -1 8 -5 18 -8 22 -4 3 -5
-1 -4 -10z"/>
<path d="M773 5725 c0 -8 4 -12 9 -9 5 3 6 10 3 15 -9 13 -12 11 -12 -6z"/>
<path d="M656 5547 c3 -10 9 -15 12 -12 3 3 0 11 -7 18 -10 9 -11 8 -5 -6z"/>
<path d="M7210 2419 c0 -5 5 -7 10 -4 6 3 10 8 10 11 0 2 -4 4 -10 4 -5 0 -10
-5 -10 -11z"/>
<path d="M7239 2393 c-13 -16 -12 -17 4 -4 9 7 17 15 17 17 0 8 -8 3 -21 -13z"/>
<path d="M7176 2353 c-6 -14 -5 -15 5 -6 7 7 10 15 7 18 -3 3 -9 -2 -12 -12z"/>
<path d="M7170 2320 c0 -5 5 -10 11 -10 5 0 7 5 4 10 -3 6 -8 10 -11 10 -2 0
-4 -4 -4 -10z"/>
<path d="M7147 2279 c7 -7 15 -10 18 -7 3 3 -2 9 -12 12 -14 6 -15 5 -6 -5z"/>
<path d="M7050 2099 c0 -5 5 -7 10 -4 6 3 10 8 10 11 0 2 -4 4 -10 4 -5 0 -10
-5 -10 -11z"/>
<path d="M7056 2033 c-6 -14 -5 -15 5 -6 7 7 10 15 7 18 -3 3 -9 -2 -12 -12z"/>
<path d="M7015 2031 c-3 -5 -2 -12 3 -15 5 -3 9 1 9 9 0 17 -3 19 -12 6z"/>
<path d="M6915 1869 c-4 -6 -5 -12 -2 -15 2 -3 7 2 10 11 7 17 1 20 -8 4z"/>
<path d="M6840 1780 c-12 -7 -10 -9 7 -7 12 0 19 5 17 9 -6 10 -6 10 -24 -2z"/>
<path d="M6786 1722 c-3 -5 1 -9 9 -9 8 0 12 4 9 9 -3 4 -7 8 -9 8 -2 0 -6 -4
-9 -8z"/>
<path d="M6745 1660 c-3 -6 1 -7 9 -4 18 7 21 14 7 14 -6 0 -13 -4 -16 -10z"/>
</g>
</svg>
